<?xml version="1.0" encoding="UTF-8"?>
<svg id="Layer_1" xmlns="http://www.w3.org/2000/svg" version="1.1" viewBox="0 0 2048 2048">
  <!-- Generator: Adobe Illustrator 29.5.1, SVG Export Plug-In . SVG Version: 2.1.0 Build 141)  -->
  <circle cx="1024" cy="1024" r="1023" display="none" fill="#047bca"/>
  <path d="M57.1,215.4v1618.6h1933.7V215.4H57.1ZM1861.1,1698.1H193V345.1h1668.1v1353Z" fill="#ccc"/>
  <polygon points="571.4 622.7 970.4 1021.7 567.7 1424.4 469.6 1326.2 773.7 1022.1 472.9 721.3 571.4 622.7" fill="#ccc"/>
  <path d="M1621.9,1088.6h0s-50.2-42.5-50.2-42.5c-1.3-1.1-2.6-2.4-3.7-3.7-11.5-13.5-9.9-33.8,3.7-45.3l50.2-42.4c5-4.2,6.9-11,4.9-17.2-11.9-36.7-31.6-70.4-57.5-99-3.1-3.4-7.5-5.3-12-5.3s-3.7.3-5.4.9l-61.9,22c-1.6.6-3.4,1.1-5.1,1.4-2,.4-3.9.6-5.8.6-15.3,0-28.9-10.9-31.7-26.4l-11.8-64.5c-1.2-6.4-6.1-11.5-12.5-12.8-18.7-4-37.9-6-57.3-6s-38.6,2-57.4,6c-6.4,1.4-11.4,6.4-12.5,12.8l-11.8,64.5c-.3,1.7-.8,3.4-1.4,5-4.7,13.2-17.1,21.4-30.4,21.4s-7.2-.6-10.8-1.9l-61.9-22.1c-1.8-.6-3.6-.9-5.4-.9-4.5,0-8.9,1.9-12,5.3-25.9,28.6-45.5,62.2-57.5,99-2,6.2,0,13,4.9,17.2l50.2,42.4c1.3,1.1,2.6,2.4,3.7,3.7,11.6,13.5,9.9,33.8-3.7,45.3l-50.2,42.4c-5,4.2-6.9,11-4.9,17.2,11.9,36.7,31.6,70.4,57.5,99,3.1,3.4,7.5,5.3,12,5.3s3.7-.3,5.4-.9l61.9-22.1c1.6-.6,3.4-1.1,5.1-1.4,1.9-.3,3.9-.5,5.8-.5,15.3,0,28.9,10.9,31.7,26.4l11.8,64.5c1.2,6.4,6.1,11.5,12.5,12.8,18.7,4,37.9,6,57.4,6s38.6-2,57.3-6c6.4-1.4,11.3-6.4,12.5-12.8l11.8-64.5c.3-1.7.8-3.4,1.4-5,4.7-13.2,17.1-21.4,30.4-21.4s7.3.6,10.9,1.9l61.9,22.1c1.8.6,3.6.9,5.4.9,4.5,0,8.9-1.9,12-5.3,25.9-28.6,45.5-62.2,57.4-99,2-6.2,0-13-4.9-17.2ZM1365.7,1141.2c-64.4,0-116.5-52.1-116.5-116.5s52.1-116.5,116.5-116.5,116.5,52.1,116.5,116.5-52.1,116.5-116.5,116.5ZM1365.7,966.5c-32.2,0-58.3,26.1-58.3,58.2s26.1,58.3,58.3,58.3,58.2-26.1,58.2-58.3-26.1-58.2-58.2-58.2Z" fill="#ccc"/>
  <path d="M571.4,622.7" fill="#fff"/>
  <path d="M1251.6,1024.7c0,19.8-16,35.8-35.8,35.8s-35.8-16-35.8-35.8,16-35.8,35.8-35.8,35.8,16,35.8,35.8Z" display="none" fill="#047bca"/>
  <path d="M1423.9,1024.7c0,32.2-26.1,58.3-58.2,58.3s-58.3-26.1-58.3-58.3,26.1-58.2,58.3-58.2,58.2,26.1,58.2,58.2Z" fill="#ccc"/>
</svg>