<?xml version="1.0" encoding="UTF-8"?>
<svg id="Layer_1" xmlns="http://www.w3.org/2000/svg" version="1.1" viewBox="0 0 2048 2048">
  <!-- Generator: Adobe Illustrator 29.5.1, SVG Export Plug-In . SVG Version: 2.1.0 Build 141)  -->
  <circle cx="1024" cy="1024" r="1023" fill="#047bca"/>
  <rect x="411.9" y="527.5" width="1187.9" height="994.4" fill="#fff"/>
  <rect x="495.4" y="607.2" width="1024.7" height="831.2" fill="#047bca"/>
  <polygon points="727.8 777.8 972.9 1022.9 725.6 1270.2 665.3 1209.9 852.1 1023.1 667.3 838.3 727.8 777.8" fill="#fff"/>
  <path d="M1373.2,1063.9l-30.8-26.1c-.8-.7-1.6-1.5-2.3-2.3-7.1-8.3-6.1-20.8,2.3-27.8l30.8-26.1c3.1-2.6,4.2-6.8,3-10.6-7.3-22.6-19.4-43.3-35.3-60.8-1.9-2.1-4.6-3.3-7.4-3.3s-2.3.2-3.3.6l-38.1,13.5c-1,.4-2.1.6-3.1.8-1.2.2-2.4.3-3.6.3-9.4,0-17.7-6.7-19.5-16.2l-7.3-39.6c-.7-3.9-3.8-7-7.7-7.9-11.5-2.4-23.3-3.7-35.2-3.7s-23.7,1.2-35.2,3.7c-3.9.8-7,4-7.7,7.9l-7.2,39.6c-.2,1.1-.5,2.1-.8,3.1-2.9,8.1-10.5,13.1-18.7,13.1s-4.5-.4-6.7-1.2l-38.1-13.5c-1.1-.4-2.2-.6-3.3-.6-2.8,0-5.4,1.2-7.4,3.3-15.9,17.6-28,38.2-35.3,60.8-1.2,3.8,0,8,3,10.6l30.8,26.1c.8.7,1.6,1.5,2.3,2.3,7.1,8.3,6.1,20.8-2.3,27.8l-30.8,26.1c-3.1,2.6-4.2,6.8-3,10.6,7.3,22.6,19.4,43.3,35.3,60.8,1.9,2.1,4.6,3.3,7.4,3.3s2.3-.2,3.3-.6l38.1-13.5c1-.4,2.1-.6,3.1-.8,1.2-.2,2.4-.3,3.6-.3,9.4,0,17.7,6.7,19.5,16.2l7.2,39.6c.7,3.9,3.8,7,7.7,7.9,11.5,2.4,23.3,3.7,35.2,3.7s23.7-1.2,35.2-3.7c3.9-.8,7-4,7.7-7.9l7.3-39.6c.2-1.1.5-2.1.8-3.1,2.9-8.1,10.5-13.1,18.7-13.1s4.5.4,6.7,1.2l38,13.5c1.1.4,2.2.6,3.3.6,2.8,0,5.4-1.2,7.4-3.3,15.9-17.6,28-38.2,35.3-60.8,1.2-3.8,0-8-3-10.6h0Z" fill="#fff"/>
  <path d="M1215.8,953.1c-39.5,0-71.6,32-71.6,71.6s32,71.6,71.6,71.6,71.6-32,71.6-71.6-32-71.6-71.6-71.6Z" fill="#047bca"/>
  <path d="M1215.8,1060.5c-19.8,0-35.8-16-35.8-35.8s16-35.8,35.8-35.8,35.8,16,35.8,35.8-16,35.8-35.8,35.8Z" fill="#fff"/>
</svg>